<?xml version="1.0" encoding="utf-8"?>
<!-- Generator: Adobe Illustrator 18.1.0, SVG Export Plug-In . SVG Version: 6.00 Build 0)  -->
<!DOCTYPE svg PUBLIC "-//W3C//DTD SVG 1.1//EN" "http://www.w3.org/Graphics/SVG/1.1/DTD/svg11.dtd">
<svg version="1.1" id="Layer_1" xmlns:sketch="http://www.bohemiancoding.com/sketch/ns"
	 xmlns="http://www.w3.org/2000/svg" xmlns:xlink="http://www.w3.org/1999/xlink" x="0px" y="0px" viewBox="-275 367 60 60"
	 enable-background="new -275 367 60 60" xml:space="preserve">
<title></title>
<path id="g_x2B_" fill="#FFFFFF" d="M-247,394.4c1-1,1.1-2.3,1.1-3.1c0-3.1-1.8-7.8-5.4-7.8c-1.1,0-2.3,0.6-3,1.4
	c-0.7,0.9-0.9,2-0.9,3.2c0,2.9,1.7,7.6,5.3,7.6C-248.9,395.6-247.7,395-247,394.4L-247,394.4z M-248.3,402.5c-0.3,0-0.6,0-1,0
	c-0.4,0-2.7,0.1-4.5,0.7c-0.9,0.3-3.7,1.4-3.7,4.4c0,3,2.9,5.2,7.5,5.2c4.1,0,6.3-2,6.3-4.6C-243.6,405.9-245,404.8-248.3,402.5
	L-248.3,402.5z M-235.8,398.2h-4.6v-2.3h4.6v-4.6h2.3v4.6h4.6v2.3h-4.6v4.6h-2.3V398.2z M-245.2,383.5c1,0.8,3,2.5,3,5.8
	c0,3.2-1.8,4.6-3.6,6.1c-0.6,0.6-1.2,1.2-1.2,2.1c0,0.9,0.6,1.5,1.1,1.8l1.5,1.2c1.9,1.6,3.6,3,3.6,6c0,4-3.9,8.1-11.2,8.1
	c-6.2,0-9.2-2.9-9.2-6.1c0-1.5,0.8-3.7,3.3-5.2c2.6-1.6,6.2-1.8,8.1-2c-0.6-0.8-1.3-1.6-1.3-2.9c0-0.7,0.2-1.2,0.4-1.7
	c-0.5,0-0.9,0.1-1.4,0.1c-4.5,0-7.1-3.4-7.1-6.7c0-2,0.9-4.1,2.7-5.7c2.4-2,5.3-2.3,7.6-2.3h8.8l-2.7,1.5L-245.2,383.5L-245.2,383.5
	z"/>
</svg>
