<?xml version="1.0" encoding="utf-8"?>
<!-- Generator: Adobe Illustrator 18.1.0, SVG Export Plug-In . SVG Version: 6.00 Build 0)  -->
<!DOCTYPE svg PUBLIC "-//W3C//DTD SVG 1.1//EN" "http://www.w3.org/Graphics/SVG/1.1/DTD/svg11.dtd">
<svg version="1.1" id="Layer_1" xmlns:sketch="http://www.bohemiancoding.com/sketch/ns"
	 xmlns="http://www.w3.org/2000/svg" xmlns:xlink="http://www.w3.org/1999/xlink" x="0px" y="0px" viewBox="-275 367 60 60"
	 enable-background="new -275 367 60 60" xml:space="preserve">
<title></title>
<path fill="#FFFFFF" d="M-253.2,391.2h-9.1v-1.2l0,0c0,11.1,0,18.1,0,18.1c0,5,5,5,5,5h23.5c0,0,5,0,5-5v-16.9l0,0v-1.2h-9.8
	c-1.6-2.1-4.1-3.5-6.9-3.5s-5.3,1.4-6.9,3.5h-9.8c0-1.7,0-3.5,0-5.4c0-3.2,2-4.3,3.5-4.7v6.7h1.2v-6.9l0,0c0.2,0,0.4,0,0.4,0h23.5
	c0,0,5,0,5,5v6.5h-9.1c0.6,1.2,1,2.6,1,4c0,4.8-3.9,8.7-8.7,8.7s-8.7-3.9-8.7-8.7C-254.2,393.8-253.9,392.4-253.2,391.2
	L-253.2,391.2z M-234.9,382c-1.1,0-2,0.9-2,2v1.8c0,1.1,0.9,2,2,2h1.8c1.1,0,2-0.9,2-2V384c0-1.1-0.9-2-2-2H-234.9z M-254.2,379.7
	v6.9h1.2v-6.9H-254.2z M-256.5,379.7v6.9h1.2v-6.9H-256.5z M-245.6,402.2c3.8,0,6.9-3.1,6.9-6.9s-3.1-6.9-6.9-6.9
	c-3.8,0-6.9,3.1-6.9,6.9S-249.4,402.2-245.6,402.2z M-245.6,399.9c2.5,0,4.6-2.1,4.6-4.6s-2.1-4.6-4.6-4.6c-2.5,0-4.6,2.1-4.6,4.6
	S-248.1,399.9-245.6,399.9z"/>
</svg>
