<?xml version="1.0" encoding="utf-8"?>
<!-- Generator: Adobe Illustrator 18.1.0, SVG Export Plug-In . SVG Version: 6.00 Build 0)  -->
<!DOCTYPE svg PUBLIC "-//W3C//DTD SVG 1.1//EN" "http://www.w3.org/Graphics/SVG/1.1/DTD/svg11.dtd">
<svg version="1.1" id="Layer_1" xmlns:sketch="http://www.bohemiancoding.com/sketch/ns"
	 xmlns="http://www.w3.org/2000/svg" xmlns:xlink="http://www.w3.org/1999/xlink" x="0px" y="0px" viewBox="-275 367 60 60"
	 enable-background="new -275 367 60 60" xml:space="preserve">
<title></title>
<path fill="#FFFFFF" d="M-253.1,410.8v-18.3h-5.7v18.3H-253.1z M-253.1,386c0-1.6-1.1-2.9-2.9-2.9c-1.8,0-2.9,1.2-2.9,2.9
	c0,1.6,1.1,2.9,2.9,2.9h0C-254.2,388.9-253.1,387.6-253.1,386z M-243.9,410.8v-10.4c0-0.6,0-1.1,0.2-1.5c0.4-1.1,1.5-2.3,3.2-2.3
	c2.2,0,3.7,1.3,3.7,3.8v10.4h5.7v-10.7c0-5.7-3.1-8.4-7.1-8.4c-3.3,0-4.8,1.9-5.6,3.1l0-2.4h-5.7c0.1,1.8,0,18.4,0,18.4H-243.9z"/>
</svg>
