<?xml version="1.0" encoding="utf-8"?>
<!-- Generator: Adobe Illustrator 18.1.0, SVG Export Plug-In . SVG Version: 6.00 Build 0)  -->
<!DOCTYPE svg PUBLIC "-//W3C//DTD SVG 1.1//EN" "http://www.w3.org/Graphics/SVG/1.1/DTD/svg11.dtd">
<svg version="1.1" id="Layer_1" xmlns:sketch="http://www.bohemiancoding.com/sketch/ns"
	 xmlns="http://www.w3.org/2000/svg" xmlns:xlink="http://www.w3.org/1999/xlink" x="0px" y="0px" viewBox="-275 367 60 60"
	 enable-background="new -275 367 60 60" xml:space="preserve">
<title></title>
<path id="Pinterest_1_" fill="#FFFFFF" d="M-242.2,406.1c6.6,0,11.1-6.1,11.1-14.4c0-6.2-5.2-12-13-12c-9.8,0-14.7,7.1-14.7,13.1
	c0,3.6,1.3,6.8,4.2,8c0.5,0.2,0.9,0,1-0.5c0.1-0.4,0.3-1.3,0.4-1.7c0.1-0.5,0.1-0.7-0.3-1.2c-0.8-1-1.4-2.3-1.4-4.1
	c0-5.3,3.9-10,10.1-10c5.5,0,8.5,3.4,8.5,8c0,6-2.6,11.2-6.5,11.2c-2.2,0-3.8-1.8-3.2-4c0.6-2.7,1.8-5.5,1.8-7.4
	c0-1.7-0.9-3.1-2.8-3.1c-2.2,0-4,2.3-4,5.4c0,2,0.7,3.3,0.7,3.3s-2.2,9.7-2.6,11.4c-0.4,1.6-0.4,3.3-0.4,4.7
	c0.2,1.3,1.4,2.3,2.5,0.9c0.8-1.2,1.6-2.8,2-4.4c0.3-0.9,1.4-5.8,1.4-5.8C-246.5,404.9-244.5,406.1-242.2,406.1z"/>
</svg>
