<?xml version="1.0" encoding="utf-8"?>
<!-- Generator: Adobe Illustrator 18.1.0, SVG Export Plug-In . SVG Version: 6.00 Build 0)  -->
<!DOCTYPE svg PUBLIC "-//W3C//DTD SVG 1.1//EN" "http://www.w3.org/Graphics/SVG/1.1/DTD/svg11.dtd">
<svg version="1.1" id="Layer_1" xmlns:sketch="http://www.bohemiancoding.com/sketch/ns"
	 xmlns="http://www.w3.org/2000/svg" xmlns:xlink="http://www.w3.org/1999/xlink" x="0px" y="0px" viewBox="-275 367 60 60"
	 enable-background="new -275 367 60 60" xml:space="preserve">
<title>rss</title>
<description>Created with Sketch.</description>
<path sketch:type="MSShapeGroup" fill="#FFFFFF" d="M-252.6,391.2c-0.6,0-1.1,0-1.7,0.1v3.4c0.5-0.1,1.1-0.2,1.7-0.2
	c5.5,0,10,4.5,10,10c0,0.6-0.1,1.1-0.2,1.7h3.4c0.1-0.5,0.1-1.1,0.1-1.7C-239.2,397.2-245.2,391.2-252.6,391.2L-252.6,391.2z
	 M-252.5,384.3c-0.6,0-1.1,0-1.7,0.1v3.4c0.6-0.1,1.1-0.1,1.7-0.1c9.3,0,16.9,7.6,16.9,16.9c0,0.6,0,1.1-0.1,1.7h3.4
	c0-0.6,0.1-1.1,0.1-1.7C-232.3,393.4-241.4,384.3-252.5,384.3L-252.5,384.3z M-252.5,399.3c-2.9,0-5.2,2.3-5.2,5.2s2.3,5.2,5.2,5.2
	s5.2-2.3,5.2-5.2S-249.6,399.3-252.5,399.3L-252.5,399.3z"/>
</svg>
