<?xml version="1.0" encoding="utf-8"?>
<!-- Generator: Adobe Illustrator 18.1.0, SVG Export Plug-In . SVG Version: 6.00 Build 0)  -->
<!DOCTYPE svg PUBLIC "-//W3C//DTD SVG 1.1//EN" "http://www.w3.org/Graphics/SVG/1.1/DTD/svg11.dtd">
<svg version="1.1" id="Layer_1" xmlns:sketch="http://www.bohemiancoding.com/sketch/ns"
	 xmlns="http://www.w3.org/2000/svg" xmlns:xlink="http://www.w3.org/1999/xlink" x="0px" y="0px" viewBox="-275 367 60 60"
	 enable-background="new -275 367 60 60" xml:space="preserve">
<title></title>
<path fill="#FFFFFF" d="M-240.4,394.7l3.5-1.2v-2.2c0-4.5-3.5-8.1-8.1-8.1c-4.6,0-8.1,3.6-8.1,8.1v11.4c0,1.1-0.7,2.4-2.3,2.4
	s-2.3-1.3-2.3-2.4v-4.5h-5.7v4.5c0,4.5,3.7,8.1,8.3,8.1s7.9-3.6,7.9-8.1v-11.4c0-1.1,0.4-2.3,2.3-2.3s2.4,1.3,2.4,2.3v2.2
	L-240.4,394.7z M-232.2,402.7c0,1.1-0.6,2.3-2.4,2.3s-2.4-1.3-2.4-2.3v-4.5l-3.4,1.2l-2.3-1.2v4.7c0,4.5,3.3,8,7.8,8
	c4.6,0,8.3-3.6,8.3-8.1v-4.5h-5.7V402.7z"/>
</svg>
