<?xml version="1.0" encoding="utf-8"?>
<!-- Generator: Adobe Illustrator 18.1.0, SVG Export Plug-In . SVG Version: 6.00 Build 0)  -->
<!DOCTYPE svg PUBLIC "-//W3C//DTD SVG 1.1//EN" "http://www.w3.org/Graphics/SVG/1.1/DTD/svg11.dtd">
<svg version="1.1" id="Layer_1" xmlns:sketch="http://www.bohemiancoding.com/sketch/ns"
	 xmlns="http://www.w3.org/2000/svg" xmlns:xlink="http://www.w3.org/1999/xlink" x="0px" y="0px" viewBox="-275 367 60 60"
	 enable-background="new -275 367 60 60" xml:space="preserve">
<title></title>
<path fill="#FFFFFF" d="M-233.9,385.4c-1.2-1.4-2.9-2.3-4.8-2.3c-3.7-0.1-6.6,3-6.6,6.9c0,0.6,0.1,1.1,0.2,1.6
	c-5.5-0.4-10.4-3.2-13.7-7.5c-0.6,1-0.9,2.2-0.9,3.5c0,2.5,1.2,4.6,2.9,5.9c-1.1,0-2.1-0.4-3-0.9c0,0,0,0.1,0,0.1
	c0,3.4,2.3,6.3,5.3,7c-0.6,0.2-1.1,0.2-1.7,0.2c-0.4,0-0.8-0.1-1.2-0.1c0.8,2.8,3.3,4.9,6.2,4.9c-2.3,1.9-5.1,3-8.2,3
	c-0.5,0-1.1,0-1.6-0.1c2.9,2,6.4,3.2,10.2,3.2c12.2,0,18.9-10.6,18.9-19.8c0-0.3,0-0.6,0-0.9c1.3-1,2.4-2.2,3.3-3.6
	c-1.2,0.5-2.5,0.9-3.8,1c1.4-0.8,2.4-2.2,2.9-3.8C-231,384.6-232.4,385.1-233.9,385.4z"/>
</svg>
