<?xml version="1.0" encoding="utf-8"?>
<!-- Generator: Adobe Illustrator 18.1.0, SVG Export Plug-In . SVG Version: 6.00 Build 0)  -->
<!DOCTYPE svg PUBLIC "-//W3C//DTD SVG 1.1//EN" "http://www.w3.org/Graphics/SVG/1.1/DTD/svg11.dtd">
<svg version="1.1" id="Layer_1" xmlns:sketch="http://www.bohemiancoding.com/sketch/ns"
	 xmlns="http://www.w3.org/2000/svg" xmlns:xlink="http://www.w3.org/1999/xlink" x="0px" y="0px" viewBox="-275 367 60 60"
	 enable-background="new -275 367 60 60" xml:space="preserve">
<title></title>
<path fill="#FFFFFF" d="M-241.5,400.9c-0.6,0.6-0.1,1.8-0.1,1.8l4.7,7.8c0,0,0.8,1,1.4,1c0.7,0,1.3-0.6,1.3-0.6l3.7-5.3
	c0,0,0.4-0.7,0.4-1.3c0-0.8-1.2-1.1-1.2-1.1l-8.8-2.8C-240.1,400.6-240.9,400.4-241.5,400.9L-241.5,400.9z M-242,397
	c0.4,0.8,1.7,0.5,1.7,0.5l8.8-2.6c0,0,1.2-0.5,1.4-1.1c0.2-0.6-0.2-1.4-0.2-1.4l-4.2-4.9c0,0-0.4-0.6-1.1-0.7
	c-0.8-0.1-1.3,0.9-1.3,0.9l-4.9,7.8C-241.9,395.5-242.4,396.3-242,397L-242,397z M-246.1,394c1-0.3,1.2-1.8,1.2-1.8l-0.1-12.5
	c0,0-0.2-1.5-0.8-2c-1.1-0.7-1.4-0.3-1.7-0.3l-7.3,2.7c0,0-0.7,0.2-1.1,0.8c-0.5,0.8,0.5,2.1,0.5,2.1l7.6,10.3
	C-247.8,393.4-247,394.2-246.1,394L-246.1,394z M-247.9,399c0-1-1.2-1.5-1.2-1.5l-7.8-3.9c0,0-1.2-0.5-1.7-0.1
	c-0.4,0.3-0.8,0.7-0.8,1.1l-0.5,6.3c0,0-0.1,1.1,0.2,1.6c0.4,0.7,1.7,0.2,1.7,0.2l9.1-2C-248.5,400.3-247.9,400.3-247.9,399
	L-247.9,399z M-245.6,402.4c-0.8-0.4-1.7,0.4-1.7,0.4l-6.1,6.7c0,0-0.8,1-0.6,1.7c0.2,0.6,0.5,0.9,0.9,1.1l6.1,1.9
	c0,0,0.7,0.2,1.3,0c0.8-0.2,0.7-1.5,0.7-1.5l0.1-9.1C-244.9,403.6-244.9,402.8-245.6,402.4L-245.6,402.4z"/>
</svg>
