<?xml version="1.0" encoding="utf-8"?>
<!-- Generator: Adobe Illustrator 18.1.0, SVG Export Plug-In . SVG Version: 6.00 Build 0)  -->
<!DOCTYPE svg PUBLIC "-//W3C//DTD SVG 1.1//EN" "http://www.w3.org/Graphics/SVG/1.1/DTD/svg11.dtd">
<svg version="1.1" id="Layer_1" xmlns:sketch="http://www.bohemiancoding.com/sketch/ns"
	 xmlns="http://www.w3.org/2000/svg" xmlns:xlink="http://www.w3.org/1999/xlink" x="0px" y="0px" viewBox="-275 367 60 60"
	 enable-background="new -275 367 60 60" xml:space="preserve">
<title></title>
<path fill="#FFFFFF" d="M-233.3,395.8h-23.4c-3.7,0-6.7,2.7-6.7,6.5v6.5c0,3.7,3,6.7,6.7,6.7h23.4c3.7,0,6.7-3,6.7-6.7v-6.4
	C-226.5,398.6-229.6,395.8-233.3,395.8z M-252.1,401.1h-2.3v10.4h-2.2v-10.4h-2.3v-1.8h6.7V401.1z M-246.3,412h-1.9v-1
	c-0.4,0.4-0.7,0.6-1.1,0.8c-0.4,0.2-0.8,0.3-1.1,0.3c-0.4,0-0.8-0.1-1-0.4c-0.2-0.3-0.3-0.7-0.3-1.2V403h1.9v6.9
	c0,0.2,0,0.4,0.1,0.5c0.1,0.1,0.2,0.1,0.4,0.1c0.1,0,0.3-0.1,0.5-0.2c0.2-0.1,0.4-0.3,0.6-0.5V403h1.9L-246.3,412L-246.3,412z
	 M-238.2,409.9c0,0.6-0.2,1.1-0.5,1.5c-0.3,0.3-0.7,0.8-1.3,0.8c-0.4,0-1.3-0.1-1.6-0.2c-0.3-0.1-0.6-0.3-0.8-0.6v0.7h-2v-12.5h2
	v4.2c0.3-0.3,0.5-0.5,0.8-0.6c0.3-0.1,1.1-0.2,1.4-0.2c0.6,0,1.1-0.1,1.4,0.3c0.3,0.4,0.5,0.9,0.5,1.7L-238.2,409.9L-238.2,409.9z
	 M-231.2,407.5h-3.7v1.7c0,0.5,0.1,0.8,0.2,1c0.1,0.2,0.3,0.3,0.7,0.3c0.3,0,0.5-0.1,0.7-0.2c0.1-0.2,0.2-0.5,0.2-1v-0.4h2v0.5
	c0,0.9-0.2,1.6-0.7,2.1c-0.5,0.5-1.2,0.7-2.2,0.7c-0.9,0-1.6-0.2-2.1-0.7c-0.5-0.5-0.7-1.2-0.7-2v-4c0-0.8,0.3-1.4,0.8-1.9
	c0.5-0.5,1.3-0.7,2.1-0.7c0.9,0,1.6,0.2,2,0.7c0.5,0.5,0.7,1.1,0.7,2L-231.2,407.5L-231.2,407.5z M-234,404.2
	c-0.3,0-0.5,0.1-0.7,0.2c-0.1,0.2-0.2,0.4-0.2,0.8v0.9h1.7v-0.9c0-0.4-0.1-0.7-0.2-0.8C-233.5,404.3-233.7,404.2-234,404.2z
	 M-241.6,404.3c-0.1,0-0.3,0-0.4,0.1c-0.1,0.1-0.3,0.2-0.4,0.3v5.6c0.2,0.1,0.3,0.3,0.5,0.3c0.1,0.1,0.3,0.1,0.5,0.1
	c0.2,0,1-0.1,1.1-0.2c0.1-0.1,0.2-0.3,0.2-0.6v-4.7c0-0.3-0.1-0.5-0.2-0.7C-240.6,404.4-241.3,404.3-241.6,404.3z M-239.1,393.6
	c0.4,0,0.8-0.1,1.2-0.3c0.4-0.2,0.8-0.5,1.2-1v1.2h2.1v-10.4h-2.1v7.9c-0.2,0.2-0.4,0.4-0.6,0.6c-0.2,0.1-0.4,0.2-0.6,0.2
	c-0.2,0-0.3-0.1-0.4-0.2c-0.1-0.1-0.1-0.3-0.1-0.5v-8h-2.1v8.7c0,0.6,0.1,1.1,0.4,1.4C-240,393.4-239.6,393.6-239.1,393.6z
	 M-245.3,393.7c1,0,1.7-0.3,2.3-0.8c0.5-0.5,0.8-1.2,0.8-2.1v-5.4c0-0.8-0.3-1.4-0.8-1.9c-0.6-0.5-1.3-0.8-2.1-0.8
	c-1,0-1.7,0.2-2.3,0.7c-0.6,0.5-0.8,1.1-0.8,1.9v5.4c0,0.9,0.3,1.6,0.8,2.1C-247,393.5-246.2,393.7-245.3,393.7z M-246.2,385.4
	c0-0.2,0.1-0.4,0.2-0.6c0.2-0.1,0.4-0.2,0.6-0.2c0.3,0,0.5,0.1,0.7,0.2c0.2,0.1,0.3,0.3,0.3,0.6v5.7c0,0.3-0.1,0.5-0.3,0.7
	c-0.2,0.2-0.4,0.2-0.7,0.2c-0.3,0-0.5-0.1-0.6-0.2c-0.1-0.2-0.2-0.4-0.2-0.7L-246.2,385.4L-246.2,385.4z M-253.6,393.5h2.4v-6.7
	l2.8-8.2h-2.4l-1.5,5.6h-0.1l-1.5-5.6h-2.4l2.8,8.5L-253.6,393.5L-253.6,393.5z"/>
</svg>
